<svg width="42" height="42" viewBox="0 0 42 42" fill="none" xmlns="http://www.w3.org/2000/svg">
<path d="M21 0C26.5695 0 31.911 2.21249 35.8492 6.15076C39.7875 10.089 42 15.4305 42 21C42 26.5695 39.7875 31.911 35.8492 35.8492C31.911 39.7875 26.5695 42 21 42C15.4305 42 10.089 39.7875 6.15076 35.8492C2.21249 31.911 0 26.5695 0 21C0 15.4305 2.21249 10.089 6.15076 6.15076C10.089 2.21249 15.4305 0 21 0V0ZM21 18.453L16.122 13.575C15.7842 13.2372 15.3262 13.0475 14.8485 13.0475C14.3708 13.0475 13.9128 13.2372 13.575 13.575C13.2372 13.9128 13.0475 14.3708 13.0475 14.8485C13.0475 15.3262 13.2372 15.7842 13.575 16.122L18.453 21L13.575 25.878C13.4078 26.0452 13.2751 26.2438 13.1846 26.4623C13.0941 26.6808 13.0475 26.915 13.0475 27.1515C13.0475 27.388 13.0941 27.6222 13.1846 27.8407C13.2751 28.0592 13.4078 28.2578 13.575 28.425C13.7422 28.5922 13.9408 28.7249 14.1593 28.8154C14.3778 28.9059 14.612 28.9525 14.8485 28.9525C15.085 28.9525 15.3192 28.9059 15.5377 28.8154C15.7562 28.7249 15.9548 28.5922 16.122 28.425L21 23.547L25.878 28.425C26.0452 28.5922 26.2438 28.7249 26.4623 28.8154C26.6808 28.9059 26.915 28.9525 27.1515 28.9525C27.388 28.9525 27.6222 28.9059 27.8407 28.8154C28.0592 28.7249 28.2578 28.5922 28.425 28.425C28.5922 28.2578 28.7249 28.0592 28.8154 27.8407C28.9059 27.6222 28.9525 27.388 28.9525 27.1515C28.9525 26.915 28.9059 26.6808 28.8154 26.4623C28.7249 26.2438 28.5922 26.0452 28.425 25.878L23.547 21L28.425 16.122C28.5922 15.9548 28.7249 15.7562 28.8154 15.5377C28.9059 15.3192 28.9525 15.085 28.9525 14.8485C28.9525 14.612 28.9059 14.3778 28.8154 14.1593C28.7249 13.9408 28.5922 13.7422 28.425 13.575C28.2578 13.4078 28.0592 13.2751 27.8407 13.1846C27.6222 13.0941 27.388 13.0475 27.1515 13.0475C26.915 13.0475 26.6808 13.0941 26.4623 13.1846C26.2438 13.2751 26.0452 13.4078 25.878 13.575L21 18.453Z" fill="#FAFAFA"/>
</svg>
