<svg width="18" height="18" viewBox="0 0 18 18" fill="none" xmlns="http://www.w3.org/2000/svg">
<g clip-path="url(#clip0_5_4)">
<path d="M17.1613 6.75845C17.0801 6.63526 16.9708 6.53515 16.8433 6.46717C16.7158 6.39919 16.574 6.36548 16.4309 6.36911H4.99632C4.75505 6.37979 4.52136 6.4602 4.32125 6.6014C4.12115 6.7426 3.96249 6.93903 3.86294 7.16883C3.86129 7.19336 3.86129 7.21797 3.86294 7.24249L2.39206 12.6828V3.21228H5.66124L6.97597 5.10111C7.02286 5.16814 7.08427 5.22263 7.15519 5.26012C7.2261 5.29761 7.3045 5.31704 7.38398 5.31683H15.4889C15.4889 5.03775 15.3828 4.7701 15.1938 4.57276C15.0049 4.37542 14.7487 4.26455 14.4815 4.26455H7.64088L6.47728 2.59144C6.38349 2.45738 6.26066 2.3484 6.11883 2.27342C5.97701 2.19844 5.8202 2.15957 5.66124 2.16H2.39206C2.12487 2.16 1.86862 2.27087 1.67969 2.46821C1.49075 2.66555 1.38461 2.9332 1.38461 3.21228V15.1503C1.39248 15.3397 1.47142 15.5182 1.60435 15.6472C1.73728 15.7762 1.9135 15.8453 2.09487 15.8396H14.6527C14.7651 15.8443 14.8758 15.8095 14.9671 15.7408C15.0584 15.6722 15.1251 15.5736 15.1565 15.4608L17.2671 7.51609C17.3065 7.38981 17.3174 7.25575 17.299 7.12434C17.2807 6.99293 17.2336 6.86771 17.1613 6.75845ZM14.2548 14.7873H2.84542L4.79987 7.52135C4.84757 7.45716 4.9153 7.41248 4.99129 7.39507H16.2395L14.2548 14.7873Z" fill="#2F3640"/>
</g>
<defs>
<clipPath id="clip0_5_4">
<rect width="18" height="18" fill="white"/>
</clipPath>
</defs>
</svg>
