<svg width="148" height="48" viewBox="0 0 148 48" fill="none" xmlns="http://www.w3.org/2000/svg">
<path d="M138.475 33.0998C136.088 33.0998 134.068 32.2732 132.414 30.6198C130.761 28.9664 129.934 26.968 129.934 24.6248C129.934 22.2814 130.761 20.2832 132.414 18.6298C134.068 16.9764 136.088 16.1496 138.475 16.1496C140.84 16.1496 142.855 16.9817 144.519 18.6462C146.184 20.3105 147.016 22.3033 147.016 24.6248C147.016 26.946 146.184 28.9389 144.519 30.6034C142.855 32.2677 140.84 33.0998 138.475 33.0998ZM138.475 28.8952C139.614 28.8952 140.561 28.4899 141.316 27.6797C142.072 26.8693 142.45 25.8512 142.45 24.6248C142.45 23.3984 142.072 22.3801 141.316 21.5697C140.561 20.7595 139.614 20.3544 138.475 20.3544C137.292 20.3544 136.329 20.7539 135.584 21.5533C134.84 22.3526 134.467 23.3765 134.467 24.6248C134.467 25.8731 134.84 26.8968 135.584 27.6961C136.329 28.4954 137.292 28.8952 138.475 28.8952ZM126.255 14.4715C127.996 14.4715 129.376 13.0919 129.376 11.3837C129.376 9.67557 127.996 8.29578 126.255 8.29578C124.58 8.29578 123.167 9.67557 123.167 11.3837C123.167 13.0919 124.58 14.4715 126.255 14.4715ZM123.791 32.837H128.752V16.4123H123.791V32.837ZM120.08 33.0205C121.434 33.0205 122.535 31.9195 122.535 30.5659C122.535 29.2125 121.434 28.1112 120.08 28.1112C118.727 28.1112 117.625 29.2125 117.625 30.5659C117.625 31.9195 118.727 33.0205 120.08 33.0205ZM107.013 33.1984C109.214 33.1984 110.824 32.0814 111.481 31.1945V32.837H116.441V8.2001L111.481 10.5429V18.0549C110.824 17.168 109.214 16.0511 107.013 16.0511C102.71 16.0511 99.3923 19.9602 99.3923 24.6248C99.3923 29.2892 102.71 33.1984 107.013 33.1984ZM108.13 28.6981C105.896 28.6981 104.385 26.9899 104.385 24.6248C104.385 22.2597 105.896 20.5515 108.13 20.5515C110.364 20.5515 111.875 22.2597 111.875 24.6248C111.875 26.9899 110.364 28.6981 108.13 28.6981ZM89.669 33.0998C87.2819 33.0998 85.2615 32.2732 83.6081 30.6198C81.9547 28.9664 81.1281 26.968 81.1281 24.6248C81.1281 22.2814 81.9547 20.2832 83.6081 18.6298C85.2615 16.9764 87.2819 16.1496 89.669 16.1496C92.0341 16.1496 94.0487 16.9817 95.7132 18.6462C97.3774 20.3105 98.2098 22.3033 98.2098 24.6248C98.2098 26.946 97.3774 28.9389 95.7132 30.6034C94.0487 32.2677 92.0341 33.0998 89.669 33.0998ZM89.669 28.8952C90.8077 28.8952 91.7547 28.4899 92.5104 27.6797C93.2658 26.8693 93.6436 25.8512 93.6436 24.6248C93.6436 23.3984 93.2658 22.3801 92.5104 21.5697C91.7547 20.7595 90.8077 20.3544 89.669 20.3544C88.4863 20.3544 87.5227 20.7539 86.7781 21.5533C86.0336 22.3526 85.6613 23.3765 85.6613 24.6248C85.6613 25.8731 86.0336 26.8968 86.7781 27.6961C87.5227 28.4954 88.4863 28.8952 89.669 28.8952ZM64.605 32.837V24.2306C64.605 21.6027 63.6522 20.2885 61.7469 20.2885C60.455 20.2885 59.4585 20.8579 58.7577 21.9967V32.837H54.2573V16.4123H58.7577V17.5622C59.8088 16.6205 61.1228 16.1496 62.6997 16.1496C64.605 16.1496 66.1817 16.8613 67.43 18.2848C68.722 16.8613 70.4849 16.1496 72.7188 16.1496C74.9524 16.1496 76.6331 16.8285 77.761 18.1864C78.8889 19.544 79.4528 21.3069 79.4528 23.4749V32.837H74.9524V24.2306C74.9524 21.6027 73.9999 20.2885 72.0946 20.2885C70.7587 20.2885 69.7295 20.891 69.0067 22.0954C69.0725 22.5113 69.1053 22.9714 69.1053 23.4749V32.837H64.605Z" fill="white"/>
<path d="M37.0804 22.1482C35.4605 22.1482 33.8838 21.9317 32.3874 21.536C32.2515 22.4389 32.1773 23.3663 32.1773 24.3062C32.1773 25.8829 32.3751 27.404 32.7522 28.863C28.5415 29.4753 24.8006 31.5218 22.0306 34.4898C20.3674 32.7584 18.3703 31.3612 16.1443 30.3903C15.0251 33.6984 12.9909 36.5858 10.3383 38.7376C14.2213 39.6279 17.1149 43.1029 17.1149 47.258V47.2827H17.1211C18.9946 47.7526 20.9485 48 22.9644 48C24.3863 48 25.7776 47.8702 27.1378 47.629C27.1564 47.6228 27.1751 47.6228 27.1937 47.6228C27.3791 42.9731 31.2126 39.2631 35.918 39.2631C37.5503 39.2631 39.0775 39.7145 40.3885 40.4937C40.5739 40.302 40.7471 40.0978 40.9263 39.8939C42.9916 37.5567 44.6178 34.8237 45.6566 31.8063C45.6504 31.8001 45.644 31.7939 45.6379 31.7939C43.2265 30.2358 41.6251 27.5276 41.6251 24.4422C41.6251 23.3786 41.8169 22.3645 42.1629 21.4248C40.543 21.8946 38.8427 22.1482 37.0804 22.1482Z" fill="#07C1D8"/>
<path d="M41.4211 8.67508C41.0439 8.86666 40.6482 9.02754 40.2461 9.1635C39.3682 9.46034 38.4284 9.62719 37.4452 9.62719C32.6163 9.62719 28.7024 5.71328 28.7024 0.884342C28.7024 0.822545 28.7085 0.760535 28.7085 0.698737C28.7024 0.698737 28.696 0.698737 28.6898 0.692558C26.8536 0.241223 24.9306 0 22.952 0C21.5298 0 20.1385 0.129987 18.7845 0.370997C18.7721 0.370997 18.7536 0.377178 18.7412 0.377178C18.5433 5.03308 14.7097 8.74306 10.0044 8.74306C8.36588 8.74306 6.83245 8.29173 5.5215 7.50647C5.51532 7.51265 5.50914 7.51883 5.50296 7.52501C3.18427 9.97347 1.38512 12.9106 0.259762 16.169C0.253583 16.1813 0.253583 16.1875 0.247403 16.1999C2.65878 17.7582 4.26019 20.4665 4.26019 23.5519C4.26019 26.7423 2.55373 29.5309 0 31.0581V31.0643C0.00617975 31.0828 0.0123595 31.1076 0.0185392 31.1261C0.970859 34.1868 2.51665 36.9877 4.52613 39.3869C8.52656 37.2784 11.649 33.7416 13.2134 29.4505C13.2195 29.4382 13.2257 29.4258 13.2257 29.4135C13.9306 27.472 14.314 25.3757 14.314 23.187C14.314 21.7154 14.1348 20.2809 13.807 18.9081C17.6901 18.1725 21.1341 16.2125 23.7311 13.4484C26.1857 16.0639 29.4009 17.956 33.0243 18.7722C33.0861 18.7845 33.1479 18.7969 33.2097 18.8092C34.4525 19.0752 35.7449 19.2235 37.068 19.2235C40.1596 19.2235 43.0658 18.4568 45.6193 17.1028C45.706 17.0471 45.7926 16.9854 45.8853 16.9295C44.9517 13.875 43.4183 11.0741 41.4211 8.67508Z" fill="#07C1D8"/>
</svg>
