<svg width="24" height="24" viewBox="0 0 24 24" fill="none" xmlns="http://www.w3.org/2000/svg">
<path d="M12 0C5.38327 0 0 5.38385 0 12C0 18.6265 5.37346 24 12 24C18.6167 24 24 18.6167 24 12C24 5.37288 18.6271 0 12 0ZM12 18.0577C10.5617 18.0577 9.18233 17.4863 8.16531 16.4693C7.14828 15.4523 6.57692 14.0729 6.57692 12.6346C6.57692 11.1963 7.14828 9.81695 8.16531 8.79992C9.18233 7.7829 10.5617 7.21154 12 7.21154H12.2429L11.4288 6.39808C11.2774 6.2466 11.1923 6.04115 11.1923 5.82692C11.1923 5.6127 11.2774 5.40725 11.4288 5.25577C11.5803 5.10429 11.7858 5.01919 12 5.01919C12.2142 5.01919 12.4197 5.10429 12.5712 5.25577L14.8788 7.56346C14.9539 7.63846 15.0134 7.72751 15.054 7.82551C15.0945 7.92351 15.1154 8.02854 15.1154 8.13462C15.1154 8.24069 15.0945 8.34573 15.054 8.44372C15.0134 8.54172 14.9539 8.63077 14.8788 8.70577L12.5712 11.0135C12.4197 11.1649 12.2142 11.25 12 11.25C11.7858 11.25 11.5803 11.1649 11.4288 11.0135C11.2774 10.862 11.1923 10.6565 11.1923 10.4423C11.1923 10.2281 11.2774 10.0226 11.4288 9.87115L12.4673 8.83269C12.33 8.82692 12.1731 8.82692 12 8.82692C11.2469 8.82692 10.5107 9.05024 9.88456 9.46863C9.25839 9.88703 8.77035 10.4817 8.48215 11.1775C8.19396 11.8732 8.11855 12.6388 8.26547 13.3775C8.41239 14.1161 8.77504 14.7945 9.30755 15.3271C9.84007 15.8596 10.5185 16.2222 11.2572 16.3691C11.9958 16.5161 12.7614 16.4407 13.4571 16.1525C14.1529 15.8643 14.7476 15.3762 15.166 14.7501C15.5844 14.1239 15.8077 13.3877 15.8077 12.6346C15.8077 12.4204 15.8928 12.215 16.0443 12.0635C16.1957 11.912 16.4012 11.8269 16.6154 11.8269C16.8296 11.8269 17.035 11.912 17.1865 12.0635C17.338 12.215 17.4231 12.4204 17.4231 12.6346C17.4214 14.0724 16.8495 15.4508 15.8328 16.4675C14.8162 17.4841 13.4378 18.056 12 18.0577V18.0577Z" fill="#FAFAFA"/>
</svg>
